<?xml version="1.0" standalone="no"?>
<!DOCTYPE svg PUBLIC "-//W3C//DTD SVG 20010904//EN"
 "http://www.w3.org/TR/2001/REC-SVG-20010904/DTD/svg10.dtd">
<svg version="1.0" xmlns="http://www.w3.org/2000/svg"
 width="460.000000pt" height="460.000000pt" viewBox="0 0 460.000000 460.000000"
 preserveAspectRatio="xMidYMid meet">
<metadata>
Created by potrace 1.11, written by Peter Selinger 2001-2013
</metadata>
<g transform="translate(0.000000,460.000000) scale(0.100000,-0.100000)"
fill="#000000" stroke="none">
<path d="M2709 4018 c-1 -21 -6 -39 -34 -127 -15 -46 -29 -96 -32 -110 -2 -14
-18 -66 -34 -115 -16 -49 -28 -95 -25 -103 10 -24 34 -13 44 20 11 34 55 185
97 328 14 48 25 94 25 103 0 19 -40 22 -41 4z"/>
<path d="M3245 3986 c-6 -6 -66 -85 -133 -176 -68 -91 -128 -172 -135 -180 -7
-8 -23 -31 -37 -50 -13 -19 -27 -37 -30 -40 -4 -3 -21 -27 -39 -53 -24 -35
-30 -52 -22 -60 15 -15 38 8 113 112 34 47 66 91 70 96 13 16 91 119 113 149
11 15 46 62 78 104 31 42 57 79 57 83 0 16 -25 27 -35 15z"/>
<path d="M2275 3929 c-4 -5 -4 -33 -1 -62 3 -28 9 -92 12 -142 4 -49 8 -97 10
-105 1 -8 3 -20 3 -27 1 -6 10 -11 21 -10 17 1 20 7 16 37 -3 19 -8 76 -12
125 -3 50 -7 99 -9 110 -1 11 -3 32 -4 46 -1 27 -25 46 -36 28z"/>
<path d="M2577 3903 c-4 -7 -8 -22 -23 -93 -6 -32 -22 -117 -28 -155 -3 -16
-8 -42 -12 -57 -5 -23 -2 -28 15 -28 20 0 24 8 35 65 4 17 9 41 11 55 3 14 8
41 11 60 3 19 7 46 10 60 17 97 17 100 1 100 -9 0 -18 -3 -20 -7z"/>
<path d="M2477 3893 c-3 -5 -8 -35 -11 -69 -4 -33 -8 -71 -11 -85 -2 -13 -6
-54 -10 -91 -6 -64 -5 -68 14 -68 12 0 21 6 21 13 1 28 12 125 19 172 10 71 8
128 -6 132 -6 2 -13 0 -16 -4z"/>
<path d="M2736 3766 c-21 -56 -47 -119 -56 -141 -32 -71 -34 -92 -11 -98 15
-3 22 1 27 17 9 31 73 196 89 231 26 55 28 82 8 87 -16 4 -25 -11 -57 -96z"/>
<path d="M3288 3841 c-12 -17 -62 -73 -193 -217 -11 -12 -47 -52 -80 -90 -33
-37 -74 -83 -91 -103 -27 -30 -30 -37 -17 -49 15 -15 29 -3 116 98 22 25 76
85 120 134 45 50 93 103 107 119 14 16 36 39 48 50 36 33 47 58 31 68 -20 13
-26 11 -41 -10z"/>
<path d="M1986 3842 c-9 -15 102 -307 116 -304 31 8 32 3 -60 245 -23 60 -42
81 -56 59z"/>
<path d="M2193 3843 c-7 -2 -10 -16 -8 -31 38 -240 41 -249 68 -239 12 5 13
14 6 45 -5 22 -11 60 -13 83 -3 24 -8 60 -11 79 -4 19 -8 42 -9 49 -3 17 -15
22 -33 14z"/>
<path d="M2369 3763 c0 -32 -1 -85 -2 -119 -2 -55 0 -60 20 -62 21 -2 22 3 25
91 4 126 1 147 -23 147 -16 0 -19 -8 -20 -57z"/>
<path d="M2105 3789 c-4 -5 6 -59 20 -119 23 -92 30 -110 46 -110 25 0 24 14
-7 131 -24 90 -44 123 -59 98z"/>
<path d="M2827 3743 c-13 -27 -34 -68 -47 -93 -13 -25 -25 -47 -25 -50 0 -3
-11 -24 -23 -46 -22 -43 -20 -54 7 -54 23 1 155 271 138 282 -21 14 -27 9 -50
-39z"/>
<path d="M2860 3618 c-19 -34 -45 -77 -58 -96 -23 -35 -23 -62 0 -62 7 0 20
12 29 28 9 15 37 61 62 102 25 41 43 78 41 82 -14 23 -42 2 -74 -54z"/>
<path d="M1872 3657 c-11 -12 -4 -30 38 -101 28 -47 54 -86 58 -86 5 0 13 5
20 12 8 8 7 17 -6 37 -10 14 -27 43 -37 64 -11 21 -29 49 -40 64 -18 22 -22
23 -33 10z"/>
<path d="M1978 3662 c-24 -5 -23 -8 15 -88 24 -52 36 -69 50 -66 23 5 22 8
-15 88 -25 52 -37 69 -50 66z"/>
<path d="M1653 3636 c-9 -10 5 -32 65 -102 129 -150 128 -149 146 -135 14 12
6 25 -66 110 -133 156 -125 149 -145 127z"/>
<path d="M1483 3526 c-13 -16 3 -33 132 -136 44 -36 91 -75 105 -87 30 -28 36
-28 50 -3 9 16 6 22 -17 34 -16 8 -42 28 -58 43 -17 15 -53 46 -80 68 -80 64
-87 69 -100 83 -16 15 -17 15 -32 -2z"/>
<path d="M1622 3527 c-8 -9 12 -34 77 -100 49 -48 92 -87 98 -87 5 0 14 5 20
11 8 8 -13 35 -80 100 -50 49 -94 89 -98 89 -4 0 -11 -6 -17 -13z"/>
<path d="M1875 3490 c-4 -6 1 -22 9 -36 14 -20 20 -23 36 -14 20 10 20 12 3
35 -19 26 -38 32 -48 15z"/>
<path d="M3405 3477 c-17 -12 -39 -27 -50 -34 -68 -41 -292 -184 -302 -193 -7
-6 -13 -17 -13 -25 0 -34 10 -28 368 203 36 23 52 39 48 49 -3 8 -6 17 -6 19
0 9 -17 2 -45 -19z"/>
<path d="M1197 3446 c-8 -20 -10 -18 188 -126 22 -12 58 -32 80 -44 55 -31
155 -86 184 -102 14 -7 28 -11 33 -8 23 15 -2 38 -99 92 -60 33 -126 69 -148
82 -206 117 -230 128 -238 106z"/>
<path d="M1461 3413 c-7 -13 -4 -21 14 -33 13 -8 72 -48 131 -88 79 -53 110
-69 116 -60 13 21 10 27 -29 52 -21 14 -78 52 -126 86 -49 33 -90 60 -92 60
-2 0 -8 -8 -14 -17z"/>
<path d="M2968 3371 c-31 -28 -31 -29 -11 -39 17 -10 25 -7 48 14 15 14 24 31
21 39 -8 22 -22 18 -58 -14z"/>
<path d="M3033 3328 c-25 -18 -39 -36 -36 -44 8 -22 31 -16 73 18 31 24 37 34
29 45 -15 18 -18 17 -66 -19z"/>
<path d="M3339 3317 c-35 -19 -110 -58 -166 -87 -90 -46 -101 -55 -93 -71 10
-17 22 -12 159 59 190 99 198 104 178 120 -12 10 -26 6 -78 -21z"/>
<path d="M1166 3223 c-3 -3 -6 -14 -6 -22 0 -12 24 -25 78 -43 364 -125 376
-128 384 -116 16 26 27 22 -262 119 -85 29 -162 56 -171 60 -9 5 -19 5 -23 2z"/>
<path d="M1470 3190 c-8 -14 -8 -20 0 -20 6 0 45 -16 86 -36 41 -19 82 -33 90
-30 24 9 15 30 -18 45 -18 7 -56 24 -85 37 -62 29 -60 29 -73 4z"/>
<path d="M3175 3144 c-71 -31 -77 -35 -66 -53 13 -20 161 36 161 61 0 24 -23
22 -95 -8z"/>
<path d="M1075 3113 c-8 -22 6 -29 110 -53 50 -12 162 -39 249 -60 88 -21 163
-37 168 -34 4 3 8 11 8 19 0 16 2 16 -290 85 -118 28 -220 53 -227 55 -6 2
-14 -3 -18 -12z"/>
<path d="M3178 3062 c-46 -15 -60 -33 -38 -47 6 -4 33 1 61 10 35 12 49 22 47
33 -4 22 -16 22 -70 4z"/>
<path d="M1990 3001 c-1 -92 -1 -337 -1 -393 l1 -56 128 2 c167 4 220 26 242
105 16 59 3 106 -36 127 l-33 18 26 25 c33 34 41 57 36 106 -9 83 -61 107
-235 110 l-128 2 0 -46z m229 -60 c27 -15 28 -61 2 -85 -14 -12 -32 -16 -67
-14 l-49 3 -1 40 c0 68 3 72 51 70 23 -2 52 -8 64 -14z m14 -193 c22 -11 23
-71 1 -89 -18 -15 -123 -21 -125 -8 -4 23 -5 95 -2 100 4 10 105 8 126 -3z"/>
<path d="M2431 3040 c-4 -3 -7 -113 -7 -245 l1 -240 158 -1 c109 -1 157 2 158
10 0 6 2 22 4 36 1 14 -1 30 -5 35 -5 6 -51 10 -104 9 l-95 0 2 55 2 56 75 0
75 0 0 45 0 45 -55 1 c-108 3 -99 -2 -97 57 l2 52 99 0 99 0 2 35 c1 19 0 40
-4 45 -6 11 -295 15 -310 5z"/>
<path d="M3315 3015 c-27 -7 -76 -18 -107 -24 -37 -8 -58 -18 -58 -26 0 -25
18 -26 112 -4 51 12 102 22 113 23 18 1 21 8 17 34 -3 11 -18 11 -77 -3z"/>
<path d="M1375 2950 c-11 -17 5 -29 50 -35 22 -3 66 -11 99 -16 32 -6 61 -8
64 -4 11 11 10 35 -1 36 -7 0 -21 2 -32 4 -11 2 -40 7 -65 10 -25 3 -59 8 -76
11 -19 4 -35 1 -39 -6z"/>
<path d="M3220 2917 c-64 -11 -62 -9 -54 -31 6 -15 16 -16 73 -11 86 7 100 12
97 33 -3 20 -35 22 -116 9z"/>
<path d="M1190 2861 c0 -17 7 -21 38 -22 20 -1 51 -3 67 -4 17 -1 90 -6 163
-10 130 -7 132 -7 132 14 0 16 -7 21 -27 22 -16 1 -39 3 -53 4 -14 2 -91 6
-172 10 -145 6 -148 6 -148 -14z"/>
<path d="M3243 2842 c-65 -3 -73 -5 -73 -22 0 -18 7 -20 88 -19 89 1 105 4
109 25 3 15 -34 20 -124 16z"/>
<path d="M1353 2782 c-66 -3 -73 -5 -73 -24 0 -20 3 -20 151 -14 84 3 154 7
156 9 2 2 1 12 -3 21 -6 17 -14 17 -231 8z"/>
<path d="M3167 2750 c-6 -23 11 -27 156 -35 108 -6 109 -6 105 16 -3 20 -9 23
-73 25 -38 2 -95 5 -127 8 -49 4 -57 2 -61 -14z"/>
<path d="M1569 2716 c-2 -2 -38 -7 -79 -10 -77 -7 -112 -12 -177 -22 -53 -8
-75 -11 -95 -13 -10 -1 -16 -9 -15 -21 1 -17 7 -20 37 -15 19 2 64 7 100 10
36 4 106 12 155 18 81 11 90 15 93 35 3 19 -7 29 -19 18z"/>
<path d="M3166 2693 c-13 -13 -5 -43 12 -44 18 -1 22 -1 116 -13 64 -8 98 -14
137 -22 19 -4 28 0 33 12 4 9 5 18 4 20 -4 3 -165 31 -233 40 -27 3 -53 8 -56
10 -3 2 -9 1 -13 -3z"/>
<path d="M1585 2645 c-213 -48 -215 -49 -215 -67 0 -10 3 -18 6 -18 20 0 220
43 225 48 9 10 -4 39 -16 37z"/>
<path d="M3156 2623 c-3 -3 -6 -14 -6 -23 0 -13 34 -24 158 -54 86 -21 169
-42 184 -46 21 -7 27 -5 31 10 3 11 -2 21 -12 25 -22 9 -159 44 -196 51 -51 9
-119 26 -136 35 -9 5 -19 5 -23 2z"/>
<path d="M1570 2565 c-24 -8 -35 -18 -35 -31 0 -10 6 -18 13 -16 25 5 57 11
65 11 4 1 7 10 7 20 0 27 -9 30 -50 16z"/>
<path d="M3130 2545 c0 -8 0 -18 -1 -22 0 -4 20 -15 45 -24 44 -18 45 -18 51
2 4 11 5 21 3 22 -1 2 -24 10 -50 19 -41 15 -48 15 -48 3z"/>
<path d="M1595 2495 c-16 -8 -70 -31 -120 -51 -49 -21 -92 -39 -93 -40 -2 -1
-1 -11 2 -22 7 -19 10 -19 89 14 161 68 178 77 172 92 -3 7 -5 16 -5 18 0 7
-13 3 -45 -11z"/>
<path d="M3106 2483 c-3 -4 -6 -13 -6 -20 0 -12 29 -27 175 -92 11 -5 61 -28
111 -50 103 -46 114 -49 114 -22 0 18 -37 38 -210 111 -36 16 -90 39 -121 53
-31 14 -60 23 -63 20z"/>
<path d="M1600 2411 c-215 -109 -241 -127 -210 -146 6 -4 262 120 288 140 5 4
-10 35 -17 35 -3 0 -31 -13 -61 -29z"/>
<path d="M3066 2404 c-4 -9 -5 -17 -4 -18 2 -1 12 -6 23 -13 11 -6 55 -30 99
-53 62 -33 80 -39 87 -28 5 7 9 15 9 18 0 7 -186 110 -198 110 -5 0 -13 -7
-16 -16z"/>
<path d="M1680 2370 c0 -5 -4 -10 -9 -10 -5 0 -75 -42 -155 -94 -131 -84 -144
-95 -132 -111 12 -17 14 -17 42 2 31 22 133 88 229 148 75 47 70 42 55 60 -14
17 -30 20 -30 5z"/>
<path d="M3031 2346 c-10 -11 -7 -18 14 -33 14 -10 39 -28 55 -40 15 -13 32
-23 37 -23 6 0 22 -11 38 -24 15 -13 45 -33 66 -45 34 -19 40 -20 45 -7 3 9 0
21 -8 29 -13 13 -226 157 -232 157 -2 0 -9 -6 -15 -14z"/>
<path d="M1700 2293 c-217 -165 -239 -185 -228 -203 11 -18 13 -17 42 6 45 36
45 35 122 95 135 104 129 98 113 114 -12 12 -19 11 -49 -12z"/>
<path d="M2987 2285 c-6 -15 164 -165 188 -165 30 0 22 29 -18 61 -23 19 -51
41 -61 49 -10 8 -33 27 -51 43 -37 31 -50 34 -58 12z"/>
<path d="M1733 2223 c-22 -21 -75 -71 -118 -111 -69 -65 -77 -75 -63 -88 13
-13 19 -10 56 24 23 22 78 73 122 113 62 56 77 75 69 86 -17 19 -22 17 -66
-24z"/>
<path d="M2940 2235 c-10 -12 -1 -25 53 -77 172 -168 165 -162 182 -148 15 12
4 26 -100 127 -63 62 -117 113 -119 113 -2 0 -9 -7 -16 -15z"/>
<path d="M1800 2183 c-12 -15 -58 -68 -103 -117 -45 -48 -82 -96 -82 -105 0
-34 33 -17 88 47 31 37 80 92 107 122 27 30 48 60 47 65 -7 21 -36 15 -57 -12z"/>
<path d="M2886 2187 c-15 -11 -16 -15 -4 -25 11 -9 19 -9 32 1 15 11 16 15 4
25 -11 9 -19 9 -32 -1z"/>
<path d="M1859 2131 c-19 -21 -62 -77 -97 -124 -59 -81 -69 -107 -39 -107 15
0 187 225 187 245 0 29 -19 24 -51 -14z"/>
<path d="M2825 2140 c-3 -5 15 -40 41 -77 103 -148 118 -168 130 -180 7 -7 14
-18 17 -25 4 -10 8 -9 21 2 16 16 9 28 -141 238 -36 50 -55 62 -68 42z"/>
<path d="M1902 2062 c-29 -48 -37 -70 -30 -79 19 -23 15 -26 84 89 22 36 22
38 4 48 -15 8 -24 0 -58 -58z"/>
<path d="M2771 2106 c-13 -15 -6 -31 69 -156 15 -25 53 -90 85 -145 146 -253
141 -245 162 -224 7 7 -18 60 -90 182 -119 203 -139 238 -168 295 -30 55 -43
66 -58 48z"/>
<path d="M1948 1978 c-134 -266 -130 -256 -110 -267 16 -9 29 12 111 176 73
145 90 187 80 194 -8 5 -16 9 -19 9 -3 0 -31 -51 -62 -112z"/>
<path d="M2704 2066 c-3 -8 14 -57 38 -108 25 -51 53 -112 63 -135 20 -46 22
-48 45 -33 13 8 13 13 -2 42 -9 18 -35 74 -57 123 -23 50 -45 96 -49 104 -12
22 -31 25 -38 7z"/>
<path d="M2067 2053 c-3 -5 -28 -68 -57 -142 -42 -107 -50 -135 -39 -142 21
-13 26 -11 37 19 6 15 31 79 55 142 32 82 42 117 34 122 -15 10 -25 10 -30 1z"/>
<path d="M2636 2041 c-7 -10 6 -55 40 -143 20 -50 32 -68 46 -68 24 0 24 0
-17 114 -19 54 -35 100 -35 102 0 8 -29 4 -34 -5z"/>
<path d="M2131 2017 c-5 -12 -18 -53 -30 -92 -19 -65 -20 -71 -4 -82 9 -7 18
-11 20 -9 5 5 53 169 53 182 0 23 -30 24 -39 1z"/>
<path d="M2572 2022 c-10 -7 -6 -34 19 -128 17 -65 42 -162 55 -214 37 -144
44 -162 61 -156 8 3 16 6 18 6 2 0 -1 15 -6 33 -5 17 -12 46 -14 62 -3 17 -12
51 -21 76 -14 45 -21 70 -31 119 -3 14 -14 57 -25 95 -19 67 -26 91 -27 108
-1 9 -13 9 -29 -1z"/>
<path d="M2200 1996 c-5 -14 -11 -46 -14 -73 -4 -26 -10 -63 -16 -82 -5 -19
-7 -37 -5 -42 3 -4 1 -10 -3 -13 -16 -9 -8 -49 10 -52 13 -1 20 13 31 65 41
180 44 221 17 221 -6 0 -15 -11 -20 -24z"/>
<path d="M2508 2012 c-22 -4 -22 -9 -3 -108 8 -44 17 -95 19 -114 10 -71 26
-153 30 -158 3 -2 12 -2 21 2 18 7 17 23 -15 191 -10 55 -22 120 -25 145 -4
25 -7 45 -8 46 -1 0 -10 -1 -19 -4z"/>
<path d="M2277 2002 c-3 -4 -8 -43 -12 -87 -4 -44 -11 -104 -15 -133 -7 -57
-6 -62 22 -62 12 0 18 8 19 23 0 12 2 31 4 41 2 10 7 60 10 110 4 50 9 94 11
97 2 4 -3 10 -12 13 -20 8 -22 8 -27 -2z"/>
<path d="M2422 2003 c-6 -3 -10 -8 -8 -11 2 -4 7 -52 11 -107 4 -55 9 -111 10
-125 2 -14 3 -35 4 -47 1 -16 7 -23 22 -23 19 0 20 3 13 108 -4 59 -8 118 -9
132 -1 14 -3 35 -4 46 -1 23 -17 34 -39 27z"/>
<path d="M2349 1988 c-7 -112 -4 -180 8 -185 23 -9 26 2 30 102 3 90 3 95 -17
95 -11 0 -20 -6 -21 -12z"/>
<path d="M2345 1143 c-72 -24 -97 -105 -53 -169 24 -35 55 -48 103 -44 62 5
96 43 97 108 1 82 -68 132 -147 105z m59 -44 c31 -14 43 -62 25 -95 -12 -23
-19 -26 -54 -26 -30 0 -34 3 -45 37 -12 38 -3 66 28 84 21 13 17 13 46 0z"/>
<path d="M513 1139 c-53 -20 -78 -101 -48 -158 48 -94 199 -61 209 46 9 85
-76 144 -161 112z m91 -55 c9 -8 16 -29 16 -46 0 -57 -51 -86 -95 -54 -22 16
-25 77 -5 100 16 21 64 20 84 0z"/>
<path d="M766 1142 c-3 -3 -6 -51 -6 -108 0 -92 2 -102 19 -107 26 -6 31 0 31
40 0 21 5 33 13 32 55 -7 106 29 102 72 -1 13 -3 29 -4 36 0 7 -10 17 -21 23
-22 12 -125 21 -134 12z m99 -72 c0 -20 -6 -26 -27 -28 -25 -3 -28 0 -28 28 0
28 3 31 28 28 21 -2 27 -8 27 -28z"/>
<path d="M1016 1134 c-3 -8 -5 -57 -5 -109 l0 -95 74 0 c64 0 73 2 71 18 -2
12 -14 18 -44 20 -37 3 -42 6 -42 28 0 21 5 24 36 24 28 0 35 3 32 18 -2 9
-10 18 -18 18 -8 1 -23 2 -32 3 -11 1 -18 9 -18 21 0 17 7 20 43 20 39 0 43 2
42 22 -2 21 -7 23 -68 24 -48 1 -67 -2 -71 -12z"/>
<path d="M1265 1142 c-6 -4 -10 -51 -10 -109 l0 -103 25 0 c25 0 26 2 25 60
-1 68 3 67 61 -11 24 -33 43 -49 57 -49 21 0 22 4 20 102 0 57 -2 106 -2 110
-1 4 -10 6 -21 5 -21 -1 -25 -21 -21 -96 l2 -34 -36 44 c-82 98 -79 96 -100
81z"/>
<path d="M1700 1040 l0 -110 25 0 c23 0 25 4 25 45 0 34 4 45 15 45 9 0 19 -8
22 -17 16 -43 47 -73 75 -73 15 0 28 3 28 6 0 4 -16 31 -36 61 l-35 53 36 50
37 50 -31 0 c-26 0 -37 -8 -63 -45 -18 -25 -35 -45 -40 -45 -4 0 -8 20 -8 45
0 41 -2 45 -25 45 l-25 0 0 -110z"/>
<path d="M1989 1130 c0 -11 0 -49 0 -85 0 -121 -1 -117 23 -113 20 3 22 9 22
61 0 31 3 57 6 57 3 0 25 -27 49 -60 32 -44 50 -60 67 -60 24 0 24 1 24 110
l0 110 -25 0 c-27 0 -30 -11 -25 -90 2 -30 0 -33 -14 -21 -9 8 -32 36 -52 62
-38 52 -74 65 -75 29z"/>
<path d="M2550 1138 c0 -7 7 -33 16 -58 9 -25 18 -54 20 -64 2 -10 8 -34 15
-53 9 -29 15 -34 37 -31 21 3 28 12 44 63 11 33 21 61 22 63 2 1 12 -26 23
-60 17 -54 23 -63 46 -66 23 -3 27 1 37 40 6 24 20 68 30 99 26 74 25 81 -7
77 -23 -3 -29 -10 -43 -63 -18 -65 -19 -64 -45 13 -14 45 -20 53 -38 50 -17
-2 -27 -18 -44 -63 -12 -35 -23 -54 -26 -45 -3 8 -12 35 -19 60 -12 37 -19 46
-41 48 -17 2 -27 -1 -27 -10z"/>
<path d="M2949 1128 c-1 -13 -2 -61 -2 -108 l-1 -85 68 -3 c65 -3 67 -2 64 20
-2 19 -9 23 -38 23 l-35 0 -2 70 c-1 39 -2 78 -2 88 -1 11 -9 17 -26 17 -19 0
-25 -5 -26 -22z"/>
<path d="M3183 1040 l-1 -111 71 3 c58 2 72 6 75 20 3 14 -6 17 -45 20 -40 3
-48 6 -48 23 0 15 8 21 31 23 21 2 34 10 37 22 4 16 -1 19 -32 22 -28 2 -36 7
-36 23 0 17 7 20 45 20 39 0 45 3 48 23 3 21 0 22 -71 22 l-74 0 0 -110z"/>
<path d="M3429 1143 c0 -5 -2 -54 -2 -111 l-2 -102 61 0 c106 0 157 57 132
146 -13 49 -57 74 -130 74 -32 0 -58 -3 -59 -7z m129 -61 c17 -22 9 -82 -14
-99 -10 -7 -28 -13 -41 -13 -22 0 -23 4 -23 69 l0 69 33 -5 c17 -2 38 -12 45
-21z"/>
<path d="M3758 1142 c-26 -11 -56 -55 -59 -87 -8 -87 58 -142 149 -124 44 9
45 11 46 66 l0 48 -39 -1 c-45 0 -62 -27 -25 -39 17 -5 19 -10 9 -21 -26 -31
-75 -8 -85 41 -4 22 0 37 13 53 19 25 42 29 85 17 22 -5 29 -3 35 10 4 11 0
22 -10 30 -18 13 -94 17 -119 7z"/>
<path d="M3990 1040 l0 -110 70 0 c63 0 70 2 70 20 0 16 -7 20 -37 21 -21 1
-41 1 -45 0 -5 0 -8 10 -8 24 0 22 4 25 35 25 28 0 35 4 35 20 0 16 -7 20 -36
20 -31 0 -35 3 -32 23 3 19 9 22 46 21 38 -1 42 1 42 22 0 23 -3 24 -70 24
l-70 0 0 -110z"/>
<path d="M1414 780 c-17 -4 -19 -15 -20 -107 l-1 -103 63 0 c44 0 67 5 78 16
21 20 20 53 -1 76 -15 16 -15 20 -1 36 17 18 11 49 -13 69 -17 13 -78 21 -105
13z m77 -29 c4 -1 10 -8 13 -17 8 -21 -20 -53 -42 -49 -9 2 -20 4 -24 4 -5 1
-8 14 -8 30 0 30 12 40 40 35 8 -1 18 -3 21 -3z m18 -110 c13 -24 -10 -45 -50
-47 -26 -1 -29 2 -29 32 0 32 2 34 35 34 23 0 37 -6 44 -19z"/>
<path d="M1675 780 c-2 -3 -3 -51 -3 -107 0 -88 3 -103 17 -104 36 -2 116 3
121 7 10 11 -23 20 -60 17 -40 -3 -40 -3 -40 32 0 34 1 35 40 35 26 0 40 4 40
13 0 9 -13 13 -37 13 -36 -1 -38 1 -41 32 l-3 32 51 0 c42 0 51 3 48 16 -2 13
-17 17 -66 18 -35 0 -65 -1 -67 -4z"/>
<path d="M2223 769 c-35 -17 -45 -28 -53 -61 -22 -80 22 -141 100 -140 71 1
80 8 80 58 0 44 0 44 -36 44 -24 0 -34 -4 -31 -12 2 -7 10 -13 18 -13 18 0 24
-35 7 -46 -25 -16 -60 -9 -88 20 -24 23 -28 34 -24 62 10 61 47 81 122 64 44
-10 43 12 -3 31 -44 18 -42 18 -92 -7z"/>
<path d="M2663 778 c-13 -21 -11 -141 3 -169 12 -24 54 -47 79 -44 69 9 85 38
85 146 0 55 -3 69 -15 69 -15 0 -18 -16 -17 -106 1 -63 -51 -101 -90 -66 -14
12 -18 31 -18 93 0 75 -10 103 -27 77z"/>
<path d="M1935 675 l0 -105 63 0 c43 0 62 4 62 13 0 8 -16 12 -47 12 l-48 0 1
93 c0 77 -2 92 -15 92 -14 0 -16 -17 -16 -105z"/>
<path d="M2487 773 c-2 -5 -4 -52 -4 -105 -1 -86 1 -98 16 -98 15 0 18 13 18
105 0 80 -3 105 -13 105 -7 0 -15 -3 -17 -7z"/>
<path d="M2963 675 c1 -78 4 -105 14 -105 15 0 15 3 13 85 -2 67 2 66 46 -8
17 -29 35 -51 40 -51 5 1 22 27 39 58 16 30 34 56 38 56 5 0 8 -17 7 -37 -4
-75 0 -105 12 -101 7 3 12 38 12 106 1 85 -2 102 -14 102 -16 0 -21 -6 -64
-85 -16 -27 -29 -51 -31 -53 -2 -2 -20 29 -41 67 -24 45 -44 71 -55 71 -15 0
-17 -13 -16 -105z"/>
</g>
</svg>
